<svg xmlns="http://www.w3.org/2000/svg" viewBox="0 0 600 700" width="600" height="700">
<rect width="600" height="700" fill="#2B2B30"/>
<polygon points="-1.2,-3.6 81.9,-3.0 3.1,74.8" fill="#7A1428" opacity="0.81"/><polygon points="84.3,2.2 86.2,83.0 -0.1,76.8" fill="#2B2B30" opacity="0.92"/><polygon points="90.1,-3.4 171.0,-3.9 86.5,72.8" fill="#2B2B30" opacity="0.64"/><polygon points="174.0,2.1 166.5,75.6 80.2,78.5" fill="#7A1428" opacity="0.59"/><polygon points="171.7,-3.6 256.7,-5.4 167.0,83.2" fill="#B4203B" opacity="0.57"/><polygon points="259.7,3.0 256.4,82.9 167.6,77.8" fill="#B4203B" opacity="0.63"/><polygon points="259.3,-1.0 348.1,1.6 252.9,79.2" fill="#2B2B30" opacity="0.67"/><polygon points="341.4,-4.4 341.7,82.6 262.8,79.5" fill="#2B2B30" opacity="0.92"/><polygon points="338.4,5.3 428.3,-5.3 345.7,80.4" fill="#B4203B" opacity="0.73"/><polygon points="431.9,-4.2 433.9,73.3 338.3,75.3" fill="#B4203B" opacity="0.95"/><polygon points="426.4,-0.0 511.1,-2.9 432.9,76.1" fill="#2B2B30" opacity="0.92"/><polygon points="516.4,0.0 508.4,81.8 426.6,76.3" fill="#2B2B30" opacity="0.72"/><polygon points="518.0,0.4 596.2,-5.5 512.8,82.1" fill="#7A1428" opacity="0.87"/><polygon points="603.2,-3.2 604.2,74.5 516.9,73.0" fill="#B4203B" opacity="0.89"/><polygon points="2.5,80.3 84.3,77.0 5.5,160.1" fill="#2B2B30" opacity="0.79"/><polygon points="84.8,82.7 80.6,153.1 2.2,153.4" fill="#2B2B30" opacity="0.74"/><polygon points="83.2,83.4 175.3,73.7 84.3,157.7" fill="#B4203B" opacity="0.85"/><polygon points="175.8,79.2 174.0,151.9 83.8,151.9" fill="#7A1428" opacity="0.68"/><polygon points="175.6,82.5 259.2,81.3 168.6,154.6" fill="#7A1428" opacity="0.79"/><polygon points="260.2,80.3 256.0,159.9 173.3,149.6" fill="#B4203B" opacity="0.78"/><polygon points="262.5,83.5 348.7,77.9 260.8,160.8" fill="#7A1428" opacity="0.9"/><polygon points="340.0,82.0 341.9,156.3 258.7,158.8" fill="#B4203B" opacity="0.88"/><polygon points="348.9,81.5 423.5,72.2 337.6,153.2" fill="#2B2B30" opacity="0.73"/><polygon points="434.2,79.3 431.1,156.5 339.2,150.8" fill="#B4203B" opacity="0.67"/><polygon points="426.5,82.3 519.1,82.2 430.9,154.2" fill="#7A1428" opacity="0.72"/><polygon points="515.0,80.4 512.6,152.0 428.1,159.7" fill="#2B2B30" opacity="0.81"/><polygon points="515.8,82.8 602.0,83.5 514.7,161.5" fill="#7A1428" opacity="0.79"/><polygon points="600.3,73.2 603.6,150.4 516.1,149.6" fill="#7A1428" opacity="0.56"/><polygon points="-2.2,152.7 81.3,160.6 -1.2,227.9" fill="#B4203B" opacity="0.91"/><polygon points="85.9,156.2 83.2,237.4 -5.3,236.6" fill="#B4203B" opacity="0.77"/><polygon points="83.0,157.4 166.3,160.6 89.0,229.4" fill="#B4203B" opacity="0.62"/><polygon points="169.7,161.1 171.8,236.3 81.1,228.8" fill="#B4203B" opacity="0.56"/><polygon points="171.6,154.1 255.4,158.9 168.2,234.6" fill="#2B2B30" opacity="0.63"/><polygon points="262.8,151.5 260.4,238.1 175.1,232.6" fill="#B4203B" opacity="0.62"/><polygon points="258.9,155.8 348.0,152.3 262.1,236.9" fill="#B4203B" opacity="0.94"/><polygon points="346.3,161.4 343.7,236.1 258.4,238.0" fill="#B4203B" opacity="0.9"/><polygon points="341.3,153.3 423.1,154.3 340.5,229.2" fill="#B4203B" opacity="0.57"/><polygon points="433.9,160.1 432.3,230.9 338.3,232.5" fill="#B4203B" opacity="0.82"/><polygon points="426.4,153.6 512.2,159.5 423.0,237.1" fill="#2B2B30" opacity="0.74"/><polygon points="515.6,156.1 516.6,227.6 432.9,230.8" fill="#7A1428" opacity="0.96"/><polygon points="511.0,155.8 605.9,152.1 516.1,229.3" fill="#B4203B" opacity="0.83"/><polygon points="600.8,154.8 600.8,227.7 510.7,238.1" fill="#B4203B" opacity="1.0"/><polygon points="-2.9,234.3 84.9,227.4 1.7,311.1" fill="#7A1428" opacity="0.59"/><polygon points="91.0,239.1 80.6,312.2 -1.9,306.7" fill="#7A1428" opacity="0.62"/><polygon points="88.5,233.1 174.0,228.5 87.1,316.0" fill="#7A1428" opacity="0.85"/><polygon points="167.5,233.0 176.2,307.2 88.0,307.1" fill="#7A1428" opacity="0.96"/><polygon points="175.6,228.3 254.0,230.1 173.9,309.9" fill="#7A1428" opacity="0.56"/><polygon points="257.9,230.2 255.0,311.9 171.4,306.3" fill="#B4203B" opacity="0.75"/><polygon points="254.9,238.4 344.8,229.6 261.9,313.2" fill="#7A1428" opacity="0.69"/><polygon points="337.0,233.7 339.2,309.5 253.1,309.8" fill="#2B2B30" opacity="0.64"/><polygon points="337.5,238.8 426.8,229.0 337.8,315.4" fill="#B4203B" opacity="0.63"/><polygon points="422.8,238.6 433.2,308.1 338.7,306.0" fill="#B4203B" opacity="0.7"/><polygon points="425.6,238.6 516.0,232.5 430.5,306.1" fill="#7A1428" opacity="0.67"/><polygon points="518.4,236.1 514.3,311.8 427.1,311.8" fill="#7A1428" opacity="0.71"/><polygon points="509.7,233.7 594.8,227.7 511.5,312.6" fill="#7A1428" opacity="0.88"/><polygon points="597.3,231.0 601.5,307.7 516.3,311.4" fill="#B4203B" opacity="0.9"/><polygon points="-4.5,305.3 85.6,316.4 3.7,388.2" fill="#B4203B" opacity="0.96"/><polygon points="89.2,314.2 85.8,385.7 2.3,394.0" fill="#2B2B30" opacity="0.9"/><polygon points="80.5,316.2 170.9,311.0 91.7,383.9" fill="#7A1428" opacity="0.81"/><polygon points="165.7,311.9 173.0,393.2 82.0,393.5" fill="#B4203B" opacity="0.56"/><polygon points="175.0,307.7 259.2,317.0 165.6,388.0" fill="#7A1428" opacity="0.74"/><polygon points="262.4,308.6 261.2,392.7 173.7,394.9" fill="#2B2B30" opacity="0.93"/><polygon points="260.2,309.7 338.0,308.3 257.5,385.9" fill="#2B2B30" opacity="0.76"/><polygon points="348.7,307.0 340.1,384.4 260.1,392.8" fill="#B4203B" opacity="0.95"/><polygon points="344.0,307.7 434.5,314.3 340.5,388.3" fill="#7A1428" opacity="0.65"/><polygon points="428.6,312.7 428.1,384.7 340.8,384.4" fill="#2B2B30" opacity="0.82"/><polygon points="423.4,311.8 517.7,312.0 426.6,392.3" fill="#B4203B" opacity="0.94"/><polygon points="513.1,314.6 508.4,383.9 428.1,383.9" fill="#B4203B" opacity="0.9"/><polygon points="511.9,306.5 602.8,313.6 510.4,389.5" fill="#2B2B30" opacity="0.78"/><polygon points="601.7,306.2 595.3,383.2 518.3,386.5" fill="#2B2B30" opacity="0.84"/><polygon points="-3.0,389.4 83.9,387.1 -5.5,464.6" fill="#7A1428" opacity="0.74"/><polygon points="90.7,394.2 90.7,470.9 3.7,468.2" fill="#2B2B30" opacity="0.98"/><polygon points="87.0,389.6 174.2,393.0 86.1,460.9" fill="#7A1428" opacity="0.68"/><polygon points="172.7,387.0 167.0,461.2 86.1,472.1" fill="#2B2B30" opacity="0.63"/><polygon points="169.4,394.4 259.4,391.6 169.0,468.7" fill="#7A1428" opacity="0.8"/><polygon points="255.3,385.3 253.0,462.8 166.5,465.4" fill="#2B2B30" opacity="0.82"/><polygon points="261.1,387.4 338.1,385.3 260.5,462.3" fill="#7A1428" opacity="0.85"/><polygon points="340.0,384.1 336.9,465.4 258.3,467.8" fill="#2B2B30" opacity="1.0"/><polygon points="340.2,393.6 424.2,393.5 347.0,464.1" fill="#B4203B" opacity="0.74"/><polygon points="431.0,392.3 432.9,461.0 343.0,463.8" fill="#7A1428" opacity="0.61"/><polygon points="426.2,391.8 509.4,394.5 422.9,466.6" fill="#2B2B30" opacity="0.92"/><polygon points="514.0,383.7 518.8,463.6 428.7,461.1" fill="#B4203B" opacity="0.97"/><polygon points="515.0,384.4 601.7,394.8 517.6,467.1" fill="#7A1428" opacity="0.89"/><polygon points="594.5,383.1 596.6,469.5 508.5,463.1" fill="#2B2B30" opacity="0.84"/><polygon points="-6.0,469.4 87.0,462.5 1.7,540.7" fill="#7A1428" opacity="0.92"/><polygon points="81.2,471.0 89.4,543.9 4.0,538.7" fill="#2B2B30" opacity="0.58"/><polygon points="80.1,463.7 170.2,465.1 88.8,547.6" fill="#2B2B30" opacity="0.79"/><polygon points="168.8,464.9 176.1,546.7 80.1,542.4" fill="#B4203B" opacity="0.85"/><polygon points="176.9,463.8 257.3,466.4 166.4,546.9" fill="#B4203B" opacity="0.87"/><polygon points="259.8,463.8 258.4,544.2 172.1,547.7" fill="#B4203B" opacity="0.63"/><polygon points="259.2,472.1 347.0,462.6 261.5,542.0" fill="#7A1428" opacity="0.76"/><polygon points="340.7,465.0 338.8,541.6 260.5,538.5" fill="#2B2B30" opacity="0.88"/><polygon points="342.6,464.5 430.2,464.6 338.6,545.8" fill="#7A1428" opacity="0.73"/><polygon points="428.6,467.3 429.6,548.0 342.5,544.4" fill="#2B2B30" opacity="0.9"/><polygon points="429.0,464.6 510.9,461.4 425.3,546.0" fill="#2B2B30" opacity="0.59"/><polygon points="511.3,472.5 510.2,541.4 427.5,549.9" fill="#B4203B" opacity="0.88"/><polygon points="509.3,466.3 596.6,472.4 513.5,544.5" fill="#2B2B30" opacity="0.88"/><polygon points="605.5,468.5 605.9,543.6 518.8,543.7" fill="#B4203B" opacity="0.83"/><polygon points="-4.3,545.3 88.0,540.1 -0.2,621.6" fill="#B4203B" opacity="0.77"/><polygon points="81.9,546.7 85.6,623.4 0.4,623.6" fill="#7A1428" opacity="0.75"/><polygon points="81.2,544.3 170.0,549.1 83.5,616.9" fill="#B4203B" opacity="0.6"/><polygon points="167.8,549.0 166.9,627.1 84.9,622.7" fill="#7A1428" opacity="0.89"/><polygon points="167.0,541.1 260.4,538.7 173.9,616.9" fill="#B4203B" opacity="0.63"/><polygon points="251.7,540.9 253.5,627.5 177.4,618.8" fill="#2B2B30" opacity="0.76"/><polygon points="261.1,542.6 347.7,541.4 251.4,621.6" fill="#2B2B30" opacity="0.9"/><polygon points="338.9,549.9 346.7,627.5 253.7,626.7" fill="#2B2B30" opacity="0.7"/><polygon points="345.3,544.1 430.4,547.9 342.6,622.2" fill="#2B2B30" opacity="0.87"/><polygon points="428.2,541.5 429.8,620.2 348.6,616.6" fill="#2B2B30" opacity="0.86"/><polygon points="433.7,538.5 512.8,542.8 426.6,619.5" fill="#B4203B" opacity="0.85"/><polygon points="512.1,547.4 519.7,627.3 427.3,623.5" fill="#7A1428" opacity="0.59"/><polygon points="516.3,539.3 595.0,540.9 512.4,626.6" fill="#B4203B" opacity="0.93"/><polygon points="605.7,548.7 594.6,617.8 511.3,623.0" fill="#B4203B" opacity="0.94"/><polygon points="-2.2,620.7 85.7,625.7 -4.0,702.5" fill="#B4203B" opacity="0.58"/><polygon points="89.1,624.3 87.6,695.9 -2.3,698.2" fill="#2B2B30" opacity="0.84"/><polygon points="86.7,619.2 176.5,617.0 82.8,705.2" fill="#2B2B30" opacity="0.72"/><polygon points="175.3,617.2 172.1,694.0 86.8,696.3" fill="#B4203B" opacity="1.0"/><polygon points="175.5,626.7 253.9,627.4 175.2,699.4" fill="#B4203B" opacity="0.87"/><polygon points="256.1,626.6 253.5,705.3 176.1,697.4" fill="#2B2B30" opacity="0.99"/><polygon points="260.6,618.7 343.5,624.8 253.2,705.9" fill="#B4203B" opacity="0.58"/><polygon points="340.1,626.4 337.0,695.0 251.3,695.1" fill="#B4203B" opacity="0.88"/><polygon points="347.9,625.8 432.4,625.6 338.9,698.6" fill="#7A1428" opacity="0.69"/><polygon points="423.1,618.4 424.9,699.6 347.9,698.3" fill="#2B2B30" opacity="0.82"/><polygon points="430.2,624.3 508.8,622.8 431.6,696.8" fill="#B4203B" opacity="0.91"/><polygon points="513.9,619.5 514.9,702.9 424.1,696.0" fill="#B4203B" opacity="0.64"/><polygon points="510.3,621.3 594.9,627.1 518.6,695.0" fill="#7A1428" opacity="0.75"/><polygon points="596.9,626.2 603.2,700.4 516.4,699.3" fill="#2B2B30" opacity="0.88"/>
</svg>