<svg xmlns="http://www.w3.org/2000/svg" viewBox="0 0 400 300" width="400" height="300">
<rect width="400" height="300" fill="#B4203B"/>
<polygon points="-1.5,5.1 70.8,-3.4 4.5,61.6" fill="#7A1428" opacity="0.81"/><polygon points="61.2,5.4 63.7,57.7 -0.9,61.1" fill="#6B6B70" opacity="0.92"/><polygon points="66.8,3.5 134.8,3.9 62.8,58.3" fill="#B4203B" opacity="0.71"/><polygon points="133.0,-4.8 139.0,61.6 61.8,61.0" fill="#6B6B70" opacity="0.62"/><polygon points="132.9,-5.2 200.8,0.2 128.9,64.5" fill="#B4203B" opacity="0.91"/><polygon points="194.5,-3.9 203.8,56.6 132.4,60.7" fill="#6B6B70" opacity="0.78"/><polygon points="199.8,-5.3 270.5,-2.6 194.6,58.9" fill="#B4203B" opacity="0.98"/><polygon points="270.4,1.5 266.2,59.7 196.6,61.4" fill="#7A1428" opacity="0.61"/><polygon points="263.5,-3.8 335.0,-4.4 271.8,64.6" fill="#B4203B" opacity="0.69"/><polygon points="336.4,-3.5 334.9,64.8 270.1,60.3" fill="#B4203B" opacity="0.77"/><polygon points="332.9,-0.9 398.5,0.0 338.5,64.4" fill="#6B6B70" opacity="0.56"/><polygon points="397.2,-2.2 394.3,65.6 337.1,65.0" fill="#6B6B70" opacity="0.83"/><polygon points="0.2,62.9 63.8,63.4 -5.3,123.7" fill="#6B6B70" opacity="0.98"/><polygon points="69.2,54.4 71.5,116.1 -2.2,115.2" fill="#6B6B70" opacity="0.84"/><polygon points="67.2,55.5 138.9,65.7 61.8,120.8" fill="#7A1428" opacity="0.7"/><polygon points="138.9,62.5 135.0,124.0 61.5,121.4" fill="#7A1428" opacity="0.78"/><polygon points="130.1,54.9 195.1,55.5 127.7,121.2" fill="#7A1428" opacity="0.78"/><polygon points="203.5,58.4 197.0,114.7 129.2,124.3" fill="#7A1428" opacity="0.96"/><polygon points="194.8,61.2 262.4,65.8 205.3,116.8" fill="#7A1428" opacity="0.71"/><polygon points="266.1,63.8 261.3,119.4 197.7,125.4" fill="#7A1428" opacity="0.66"/><polygon points="268.5,65.4 337.3,58.7 260.8,125.4" fill="#7A1428" opacity="0.58"/><polygon points="329.0,54.9 337.6,121.6 264.2,120.5" fill="#B4203B" opacity="0.99"/><polygon points="328.6,64.4 403.8,54.4 335.8,123.1" fill="#B4203B" opacity="0.98"/><polygon points="403.0,54.7 405.6,114.9 328.3,125.4" fill="#B4203B" opacity="0.9"/><polygon points="4.7,122.9 69.4,115.9 2.4,180.7" fill="#7A1428" opacity="0.78"/><polygon points="61.4,115.0 69.4,180.0 3.8,176.4" fill="#7A1428" opacity="0.88"/><polygon points="61.5,121.8 136.5,118.6 70.2,185.5" fill="#B4203B" opacity="0.73"/><polygon points="133.4,117.4 137.9,182.3 63.1,185.8" fill="#B4203B" opacity="0.66"/><polygon points="138.2,116.1 199.1,114.5 133.2,182.4" fill="#7A1428" opacity="0.94"/><polygon points="202.8,118.1 199.1,183.9 137.9,179.3" fill="#7A1428" opacity="0.71"/><polygon points="199.7,114.6 260.9,115.4 200.5,177.1" fill="#B4203B" opacity="1.0"/><polygon points="270.2,115.7 268.5,174.3 198.3,185.3" fill="#7A1428" opacity="0.58"/><polygon points="265.8,119.6 327.8,123.3 265.3,174.1" fill="#7A1428" opacity="0.82"/><polygon points="327.4,118.0 328.2,185.3 260.7,174.5" fill="#7A1428" opacity="0.94"/><polygon points="338.0,120.2 403.6,117.3 328.6,178.8" fill="#7A1428" opacity="0.67"/><polygon points="400.8,120.2 403.0,180.9 329.2,181.4" fill="#B4203B" opacity="0.98"/><polygon points="-5.4,180.1 69.3,182.6 4.8,235.4" fill="#B4203B" opacity="0.94"/><polygon points="64.8,177.2 61.1,240.8 0.6,240.4" fill="#B4203B" opacity="0.99"/><polygon points="67.7,184.6 133.5,180.9 72.5,235.2" fill="#7A1428" opacity="0.68"/><polygon points="130.0,181.2 136.7,237.8 69.1,242.5" fill="#B4203B" opacity="0.81"/><polygon points="133.7,177.3 199.2,180.0 135.3,240.4" fill="#B4203B" opacity="0.82"/><polygon points="201.4,176.5 205.1,242.3 136.7,235.6" fill="#7A1428" opacity="0.65"/><polygon points="203.3,182.6 265.5,178.3 201.2,245.7" fill="#7A1428" opacity="0.83"/><polygon points="268.9,181.7 268.9,244.1 201.1,242.5" fill="#B4203B" opacity="0.98"/><polygon points="267.6,180.9 338.5,180.8 271.4,240.6" fill="#B4203B" opacity="0.93"/><polygon points="334.2,185.0 338.4,241.2 267.2,240.6" fill="#B4203B" opacity="0.65"/><polygon points="330.8,176.7 405.3,178.9 337.8,239.7" fill="#B4203B" opacity="0.99"/><polygon points="406.0,181.1 398.1,239.1 330.5,237.9" fill="#7A1428" opacity="0.72"/><polygon points="-5.7,245.3 70.4,238.1 4.1,294.6" fill="#6B6B70" opacity="0.58"/><polygon points="68.1,241.1 71.2,305.8 1.3,304.0" fill="#7A1428" opacity="0.92"/><polygon points="70.0,241.4 135.3,235.1 70.0,295.0" fill="#B4203B" opacity="0.64"/><polygon points="130.2,241.4 136.8,297.2 71.5,304.0" fill="#7A1428" opacity="0.62"/><polygon points="133.8,241.9 197.8,236.7 136.4,300.9" fill="#B4203B" opacity="0.81"/><polygon points="203.2,237.1 197.8,298.6 132.5,299.8" fill="#6B6B70" opacity="0.56"/><polygon points="197.4,237.4 268.4,245.3 197.0,295.3" fill="#7A1428" opacity="0.85"/><polygon points="263.6,244.3 268.1,295.7 202.5,298.9" fill="#6B6B70" opacity="0.93"/><polygon points="272.1,238.7 336.7,245.2 261.9,296.3" fill="#6B6B70" opacity="0.77"/><polygon points="331.3,238.0 335.0,305.8 263.0,297.3" fill="#7A1428" opacity="0.6"/><polygon points="339.2,245.9 396.5,241.0 334.0,294.9" fill="#6B6B70" opacity="0.79"/><polygon points="395.6,239.5 398.8,305.6 337.2,304.8" fill="#6B6B70" opacity="0.91"/>
</svg>