<svg xmlns="http://www.w3.org/2000/svg" viewBox="0 0 400 300" width="400" height="300">
<rect width="400" height="300" fill="#1E1E22"/>
<polygon points="-4.7,2.4 68.5,5.3 -2.7,57.1" fill="#2B2B30" opacity="0.67"/><polygon points="69.5,1.9 64.3,62.2 -1.2,63.3" fill="#1E1E22" opacity="0.71"/><polygon points="63.8,3.7 134.9,-4.2 67.3,62.0" fill="#1E1E22" opacity="0.73"/><polygon points="129.3,1.8 128.8,58.0 61.7,56.5" fill="#1E1E22" opacity="0.95"/><polygon points="128.5,1.7 204.6,0.9 135.0,58.4" fill="#1E1E22" opacity="0.91"/><polygon points="204.4,3.0 199.8,62.1 130.6,61.5" fill="#B4203B" opacity="0.66"/><polygon points="195.5,6.0 264.0,-4.6 195.9,58.9" fill="#1E1E22" opacity="0.77"/><polygon points="268.9,1.0 265.8,65.7 196.0,58.6" fill="#1E1E22" opacity="0.74"/><polygon points="270.6,-2.9 332.1,-0.6 268.1,59.9" fill="#1E1E22" opacity="0.56"/><polygon points="334.2,-0.1 330.5,59.3 270.6,58.9" fill="#B4203B" opacity="0.81"/><polygon points="338.6,-2.8 397.6,-3.7 334.9,59.6" fill="#1E1E22" opacity="0.78"/><polygon points="397.1,-1.3 394.4,57.7 339.1,61.0" fill="#1E1E22" opacity="1.0"/><polygon points="-4.6,65.5 70.0,54.0 -3.0,120.0" fill="#2B2B30" opacity="0.8"/><polygon points="62.9,56.5 68.8,118.0 2.7,124.7" fill="#B4203B" opacity="0.88"/><polygon points="70.1,55.9 135.1,56.4 66.5,116.9" fill="#B4203B" opacity="0.97"/><polygon points="132.0,60.6 138.3,119.9 72.1,114.4" fill="#1E1E22" opacity="0.9"/><polygon points="128.4,63.7 195.6,54.7 138.5,116.5" fill="#B4203B" opacity="0.74"/><polygon points="199.8,55.5 204.8,114.6 128.6,122.4" fill="#2B2B30" opacity="0.75"/><polygon points="195.1,63.7 262.7,54.2 204.9,125.8" fill="#B4203B" opacity="0.73"/><polygon points="271.0,63.8 272.6,121.1 203.9,122.4" fill="#1E1E22" opacity="0.98"/><polygon points="264.5,54.9 331.7,65.9 268.4,121.8" fill="#B4203B" opacity="0.97"/><polygon points="337.2,65.0 328.2,124.1 262.0,114.6" fill="#2B2B30" opacity="0.55"/><polygon points="335.5,54.5 405.8,64.6 329.1,124.6" fill="#1E1E22" opacity="0.86"/><polygon points="399.6,64.4 402.6,114.2 328.3,117.3" fill="#B4203B" opacity="0.78"/><polygon points="0.6,123.6 69.4,114.1 -1.7,175.3" fill="#1E1E22" opacity="0.98"/><polygon points="62.1,118.6 64.2,182.7 -2.0,177.0" fill="#B4203B" opacity="0.69"/><polygon points="63.3,121.0 138.1,114.3 68.4,186.0" fill="#2B2B30" opacity="0.9"/><polygon points="131.4,118.6 134.6,177.0 69.8,185.7" fill="#1E1E22" opacity="0.94"/><polygon points="133.0,118.7 200.2,115.4 130.0,176.8" fill="#2B2B30" opacity="0.64"/><polygon points="197.1,124.3 197.0,175.1 137.7,180.7" fill="#B4203B" opacity="0.82"/><polygon points="197.4,125.9 266.2,124.8 194.8,174.9" fill="#2B2B30" opacity="0.89"/><polygon points="269.3,122.6 266.2,176.4 195.3,178.4" fill="#1E1E22" opacity="0.7"/><polygon points="267.1,125.8 327.9,121.3 266.2,184.8" fill="#1E1E22" opacity="0.77"/><polygon points="337.2,119.7 331.0,174.6 261.3,174.4" fill="#B4203B" opacity="0.68"/><polygon points="335.4,122.9 395.6,126.0 329.8,183.2" fill="#B4203B" opacity="0.92"/><polygon points="406.0,124.5 396.7,184.4 337.5,181.1" fill="#2B2B30" opacity="0.71"/><polygon points="4.2,180.7 64.9,183.8 6.0,239.2" fill="#2B2B30" opacity="0.78"/><polygon points="60.8,177.7 71.4,236.1 -3.6,243.5" fill="#B4203B" opacity="0.65"/><polygon points="65.3,181.1 128.7,183.3 65.9,243.2" fill="#2B2B30" opacity="0.79"/><polygon points="136.5,174.9 137.2,243.9 63.6,241.1" fill="#B4203B" opacity="0.72"/><polygon points="133.7,175.6 204.4,181.5 137.3,235.0" fill="#1E1E22" opacity="0.8"/><polygon points="202.9,175.1 200.7,236.8 138.2,235.3" fill="#1E1E22" opacity="0.72"/><polygon points="194.8,182.0 272.3,178.3 204.8,238.1" fill="#1E1E22" opacity="0.69"/><polygon points="263.9,179.5 272.3,243.4 201.6,234.5" fill="#2B2B30" opacity="0.79"/><polygon points="263.1,180.5 331.6,182.4 271.9,236.0" fill="#2B2B30" opacity="0.8"/><polygon points="330.7,174.6 336.4,234.8 268.2,239.8" fill="#B4203B" opacity="0.95"/><polygon points="332.6,183.2 400.7,183.1 332.4,242.6" fill="#2B2B30" opacity="0.64"/><polygon points="403.7,176.6 402.4,241.8 330.4,240.1" fill="#2B2B30" opacity="0.73"/><polygon points="-4.6,236.7 63.0,242.1 3.3,294.4" fill="#2B2B30" opacity="0.55"/><polygon points="64.0,236.9 64.7,295.6 -5.4,297.3" fill="#1E1E22" opacity="0.84"/><polygon points="63.9,239.9 136.5,243.0 66.6,295.8" fill="#B4203B" opacity="0.96"/><polygon points="129.9,242.8 130.5,305.5 72.3,296.4" fill="#1E1E22" opacity="0.96"/><polygon points="133.3,238.9 199.7,240.4 139.2,297.8" fill="#2B2B30" opacity="0.98"/><polygon points="200.5,244.0 194.8,301.9 139.2,294.8" fill="#1E1E22" opacity="0.66"/><polygon points="199.9,242.5 269.8,234.0 200.8,304.2" fill="#1E1E22" opacity="0.87"/><polygon points="261.6,235.1 267.9,296.5 201.9,300.2" fill="#1E1E22" opacity="0.7"/><polygon points="265.3,240.8 335.8,237.2 264.0,296.2" fill="#1E1E22" opacity="0.85"/><polygon points="328.9,245.8 328.8,303.8 271.8,301.8" fill="#2B2B30" opacity="0.76"/><polygon points="327.6,235.7 401.7,243.1 329.4,296.4" fill="#2B2B30" opacity="0.78"/><polygon points="402.3,238.6 396.5,295.5 337.4,297.9" fill="#2B2B30" opacity="0.97"/>
</svg>