<svg xmlns="http://www.w3.org/2000/svg" viewBox="0 0 400 300" width="400" height="300">
<rect width="400" height="300" fill="#2B2B30"/>
<polygon points="-1.8,-0.8 66.1,-1.9 0.1,58.7" fill="#2B2B30" opacity="0.88"/><polygon points="61.2,-1.0 61.0,55.2 -2.8,65.6" fill="#B4203B" opacity="0.96"/><polygon points="71.5,0.8 130.1,0.3 65.0,65.5" fill="#B4203B" opacity="0.9"/><polygon points="127.7,-1.5 135.6,61.2 67.4,63.1" fill="#7A1428" opacity="0.96"/><polygon points="127.8,-2.0 198.4,-1.4 133.8,57.0" fill="#2B2B30" opacity="0.82"/><polygon points="201.8,4.6 205.1,64.1 130.0,62.9" fill="#7A1428" opacity="0.94"/><polygon points="204.5,3.7 270.4,5.1 198.3,60.8" fill="#B4203B" opacity="0.83"/><polygon points="266.5,0.8 265.4,65.3 200.2,56.7" fill="#B4203B" opacity="0.72"/><polygon points="263.7,1.2 338.4,-4.2 260.8,56.0" fill="#2B2B30" opacity="0.71"/><polygon points="334.9,3.1 328.2,60.1 268.1,59.7" fill="#B4203B" opacity="0.82"/><polygon points="338.1,1.3 405.3,4.9 338.3,61.7" fill="#7A1428" opacity="0.63"/><polygon points="405.4,4.0 400.9,56.5 332.5,65.8" fill="#2B2B30" opacity="0.96"/><polygon points="-4.5,55.6 70.1,58.1 -1.3,117.2" fill="#7A1428" opacity="0.93"/><polygon points="60.7,55.5 61.5,114.2 -5.5,116.2" fill="#B4203B" opacity="0.9"/><polygon points="70.4,60.3 134.1,54.1 61.6,124.0" fill="#B4203B" opacity="0.56"/><polygon points="138.4,58.1 137.7,124.5 63.5,114.7" fill="#2B2B30" opacity="0.57"/><polygon points="133.9,56.9 204.8,60.4 133.9,123.1" fill="#2B2B30" opacity="0.74"/><polygon points="201.4,65.9 195.0,119.9 134.0,125.4" fill="#2B2B30" opacity="0.8"/><polygon points="203.1,61.2 261.4,60.1 204.8,121.8" fill="#2B2B30" opacity="0.9"/><polygon points="266.1,54.2 270.4,120.3 205.6,123.4" fill="#2B2B30" opacity="0.78"/><polygon points="269.7,58.2 331.3,59.6 267.7,122.1" fill="#7A1428" opacity="0.64"/><polygon points="338.6,65.7 335.0,122.2 268.9,114.3" fill="#7A1428" opacity="0.68"/><polygon points="336.6,60.5 398.6,62.7 328.6,120.3" fill="#B4203B" opacity="0.88"/><polygon points="401.1,59.7 402.9,118.3 331.1,123.2" fill="#B4203B" opacity="0.99"/><polygon points="-4.8,123.7 65.5,118.0 4.0,184.2" fill="#B4203B" opacity="0.97"/><polygon points="70.5,115.1 68.1,179.1 -5.4,181.0" fill="#7A1428" opacity="0.91"/><polygon points="63.7,117.5 132.9,121.9 70.5,177.6" fill="#2B2B30" opacity="0.94"/><polygon points="138.6,119.3 137.7,174.7 67.6,174.0" fill="#7A1428" opacity="0.75"/><polygon points="137.1,117.1 195.2,115.5 129.4,178.0" fill="#7A1428" opacity="0.94"/><polygon points="199.1,116.8 200.8,177.2 134.0,185.0" fill="#7A1428" opacity="0.82"/><polygon points="201.1,121.5 266.2,120.7 202.2,178.5" fill="#B4203B" opacity="0.97"/><polygon points="261.2,121.4 262.8,174.9 198.9,176.7" fill="#2B2B30" opacity="0.55"/><polygon points="262.3,114.9 332.0,118.6 269.6,181.6" fill="#B4203B" opacity="0.93"/><polygon points="336.1,120.1 328.6,183.5 265.6,184.7" fill="#B4203B" opacity="0.96"/><polygon points="333.3,119.3 403.9,118.7 333.4,179.2" fill="#7A1428" opacity="0.84"/><polygon points="405.0,117.8 404.2,175.6 335.9,179.9" fill="#2B2B30" opacity="0.77"/><polygon points="5.7,178.3 61.0,181.5 -5.0,236.7" fill="#7A1428" opacity="0.58"/><polygon points="68.4,180.1 69.2,243.2 -2.3,241.3" fill="#7A1428" opacity="0.63"/><polygon points="69.0,178.9 133.0,181.1 65.5,236.8" fill="#B4203B" opacity="0.59"/><polygon points="138.9,178.5 136.8,238.1 62.6,235.3" fill="#7A1428" opacity="0.63"/><polygon points="129.3,175.1 201.1,184.3 128.8,239.0" fill="#B4203B" opacity="0.91"/><polygon points="200.6,176.6 205.0,243.2 135.0,235.2" fill="#B4203B" opacity="0.98"/><polygon points="205.2,175.1 264.5,182.6 205.3,245.0" fill="#7A1428" opacity="0.75"/><polygon points="266.7,180.9 269.9,244.8 203.6,240.2" fill="#7A1428" opacity="0.74"/><polygon points="266.6,176.3 331.3,181.2 265.8,235.2" fill="#B4203B" opacity="0.96"/><polygon points="336.6,175.5 337.5,239.2 271.6,238.0" fill="#7A1428" opacity="0.73"/><polygon points="336.2,185.1 399.7,180.2 338.5,236.8" fill="#B4203B" opacity="0.89"/><polygon points="401.5,180.5 397.9,235.7 329.3,237.5" fill="#7A1428" opacity="0.68"/><polygon points="1.7,244.2 60.7,238.1 -3.7,296.6" fill="#2B2B30" opacity="0.82"/><polygon points="71.5,235.6 72.2,301.4 3.6,303.8" fill="#2B2B30" opacity="0.74"/><polygon points="65.7,239.0 136.4,245.6 61.2,300.8" fill="#2B2B30" opacity="0.72"/><polygon points="135.6,239.9 130.6,294.7 61.0,296.3" fill="#B4203B" opacity="0.71"/><polygon points="138.9,244.4 206.0,241.5 132.6,304.0" fill="#2B2B30" opacity="0.76"/><polygon points="205.9,234.8 199.7,294.8 129.3,296.7" fill="#B4203B" opacity="0.68"/><polygon points="195.4,240.8 260.8,240.4 200.4,299.7" fill="#7A1428" opacity="0.71"/><polygon points="272.2,238.0 271.6,302.1 201.0,297.9" fill="#B4203B" opacity="0.6"/><polygon points="264.4,234.6 330.0,243.9 267.0,301.3" fill="#2B2B30" opacity="0.97"/><polygon points="327.8,240.7 327.9,304.7 266.2,295.1" fill="#7A1428" opacity="0.95"/><polygon points="333.5,234.5 394.8,241.2 331.1,301.3" fill="#2B2B30" opacity="0.72"/><polygon points="399.3,238.9 402.6,302.6 330.4,304.7" fill="#B4203B" opacity="0.87"/>
</svg>