<svg xmlns="http://www.w3.org/2000/svg" viewBox="0 0 400 300" width="400" height="300">
<rect width="400" height="300" fill="#B4203B"/>
<polygon points="-2.1,5.8 72.2,5.0 3.5,64.5" fill="#2B2B30" opacity="0.58"/><polygon points="60.7,1.5 63.6,62.8 -0.8,60.7" fill="#B4203B" opacity="0.92"/><polygon points="72.4,-1.9 137.0,4.7 65.4,55.5" fill="#2B2B30" opacity="0.63"/><polygon points="133.3,3.2 133.6,56.2 69.1,57.9" fill="#2B2B30" opacity="1.0"/><polygon points="138.1,-0.1 203.1,-3.4 138.1,63.6" fill="#2B2B30" opacity="0.78"/><polygon points="204.4,5.2 202.7,63.0 130.4,54.4" fill="#2B2B30" opacity="0.78"/><polygon points="199.4,2.7 270.8,-2.4 200.8,56.1" fill="#B4203B" opacity="0.63"/><polygon points="269.4,6.0 265.9,62.6 194.2,58.6" fill="#2B2B30" opacity="0.97"/><polygon points="263.7,-4.8 332.8,-3.3 269.4,65.5" fill="#B4203B" opacity="0.68"/><polygon points="336.6,4.9 329.5,61.7 266.4,63.5" fill="#2B2B30" opacity="0.69"/><polygon points="334.1,4.8 397.6,-0.0 328.3,62.2" fill="#B4203B" opacity="0.74"/><polygon points="397.6,-1.5 397.2,63.8 339.1,55.7" fill="#2B2B30" opacity="0.89"/><polygon points="4.9,55.5 68.9,57.6 -0.6,120.9" fill="#1E1E22" opacity="0.71"/><polygon points="65.3,61.8 64.6,120.0 -1.7,119.1" fill="#B4203B" opacity="0.6"/><polygon points="68.1,59.0 132.4,64.8 62.5,120.4" fill="#1E1E22" opacity="0.87"/><polygon points="134.7,61.6 136.5,118.3 71.8,122.0" fill="#2B2B30" opacity="0.78"/><polygon points="138.6,62.7 202.1,62.1 135.8,119.4" fill="#2B2B30" opacity="0.84"/><polygon points="199.9,60.4 194.2,120.1 132.4,119.1" fill="#1E1E22" opacity="0.73"/><polygon points="200.9,56.8 272.4,62.0 202.4,122.9" fill="#2B2B30" opacity="0.59"/><polygon points="261.0,56.1 265.2,119.3 198.8,120.2" fill="#2B2B30" opacity="0.78"/><polygon points="265.1,62.4 338.9,65.0 265.8,121.2" fill="#2B2B30" opacity="0.86"/><polygon points="333.5,64.1 327.4,117.8 262.3,122.7" fill="#1E1E22" opacity="0.96"/><polygon points="336.4,60.0 395.0,56.8 336.2,115.8" fill="#B4203B" opacity="0.78"/><polygon points="394.2,55.9 405.0,117.5 337.6,118.7" fill="#1E1E22" opacity="0.69"/><polygon points="-0.2,123.3 65.3,119.4 0.7,174.7" fill="#2B2B30" opacity="0.7"/><polygon points="67.9,114.3 62.7,179.6 4.3,182.3" fill="#1E1E22" opacity="0.92"/><polygon points="61.4,120.4 134.6,116.6 68.2,177.9" fill="#2B2B30" opacity="0.6"/><polygon points="132.1,122.2 134.9,182.7 62.8,179.2" fill="#B4203B" opacity="0.66"/><polygon points="133.6,121.8 202.0,118.5 127.8,183.9" fill="#B4203B" opacity="0.99"/><polygon points="203.7,120.9 195.0,182.7 134.1,179.8" fill="#1E1E22" opacity="0.78"/><polygon points="203.0,123.2 265.0,126.0 196.6,179.3" fill="#2B2B30" opacity="0.98"/><polygon points="261.3,120.0 269.6,175.5 197.0,175.4" fill="#1E1E22" opacity="0.87"/><polygon points="266.7,125.9 338.8,122.0 261.2,176.9" fill="#B4203B" opacity="0.85"/><polygon points="338.5,117.0 336.8,176.4 270.1,178.5" fill="#1E1E22" opacity="0.58"/><polygon points="328.4,118.7 397.1,119.9 336.9,181.4" fill="#2B2B30" opacity="0.73"/><polygon points="395.6,117.0 401.2,175.4 329.3,179.8" fill="#2B2B30" opacity="0.7"/><polygon points="5.5,178.4 64.9,185.6 -5.7,243.3" fill="#2B2B30" opacity="0.73"/><polygon points="66.9,176.9 61.1,235.7 -5.9,234.3" fill="#B4203B" opacity="0.93"/><polygon points="62.3,181.9 133.3,184.6 69.1,236.3" fill="#2B2B30" opacity="0.75"/><polygon points="127.5,180.3 128.2,245.7 65.0,244.6" fill="#2B2B30" opacity="0.94"/><polygon points="135.4,185.3 203.7,176.5 139.1,236.6" fill="#B4203B" opacity="0.81"/><polygon points="196.3,182.2 205.7,242.7 129.4,238.1" fill="#1E1E22" opacity="0.79"/><polygon points="201.1,184.9 263.0,183.1 204.9,244.0" fill="#B4203B" opacity="0.84"/><polygon points="263.8,179.2 272.1,241.3 198.4,238.1" fill="#B4203B" opacity="0.59"/><polygon points="267.2,176.7 330.9,184.2 272.1,241.6" fill="#B4203B" opacity="0.99"/><polygon points="337.7,177.0 337.9,236.4 271.5,243.8" fill="#1E1E22" opacity="0.55"/><polygon points="336.5,180.8 395.2,184.2 328.6,239.7" fill="#2B2B30" opacity="0.75"/><polygon points="398.5,182.5 404.3,243.9 332.7,235.0" fill="#1E1E22" opacity="0.78"/><polygon points="2.8,240.2 64.7,237.6 0.8,302.3" fill="#B4203B" opacity="0.55"/><polygon points="62.4,238.9 69.1,299.7 4.4,305.9" fill="#B4203B" opacity="0.72"/><polygon points="65.6,245.8 136.8,235.5 70.4,299.8" fill="#1E1E22" opacity="0.65"/><polygon points="135.8,240.2 131.3,297.7 66.9,305.2" fill="#1E1E22" opacity="0.76"/><polygon points="132.1,241.0 199.2,234.7 134.0,299.2" fill="#2B2B30" opacity="0.8"/><polygon points="202.8,236.8 195.5,301.7 139.2,302.2" fill="#1E1E22" opacity="0.58"/><polygon points="204.7,245.2 263.4,235.3 204.3,305.0" fill="#B4203B" opacity="0.68"/><polygon points="267.6,238.4 271.8,304.2 195.1,296.4" fill="#B4203B" opacity="0.81"/><polygon points="261.5,237.9 330.2,239.6 261.0,305.8" fill="#1E1E22" opacity="0.87"/><polygon points="332.8,235.2 329.6,301.6 269.5,302.7" fill="#B4203B" opacity="0.56"/><polygon points="339.3,243.3 395.9,235.1 332.3,296.6" fill="#2B2B30" opacity="0.74"/><polygon points="397.8,234.2 399.8,298.1 332.5,305.7" fill="#2B2B30" opacity="0.57"/>
</svg>