<svg xmlns="http://www.w3.org/2000/svg" viewBox="0 0 400 300" width="400" height="300">
<rect width="400" height="300" fill="#1E1E22"/>
<polygon points="1.0,-3.5 68.4,5.4 -5.5,59.4" fill="#B4203B" opacity="0.6"/><polygon points="64.9,-2.5 71.2,65.6 3.6,59.0" fill="#1E1E22" opacity="0.65"/><polygon points="69.7,-0.6 135.3,1.9 61.4,63.4" fill="#6B6B70" opacity="0.89"/><polygon points="136.7,-2.4 129.5,57.5 62.7,61.3" fill="#6B6B70" opacity="0.62"/><polygon points="132.7,-4.4 202.6,-3.3 130.5,57.0" fill="#1E1E22" opacity="0.81"/><polygon points="202.6,-0.3 204.0,61.1 134.4,62.0" fill="#6B6B70" opacity="0.68"/><polygon points="196.5,4.8 268.0,-0.5 201.4,56.1" fill="#6B6B70" opacity="0.9"/><polygon points="271.2,-0.1 264.2,62.3 199.8,62.5" fill="#B4203B" opacity="0.95"/><polygon points="262.2,0.2 327.7,-5.3 263.1,54.8" fill="#B4203B" opacity="0.99"/><polygon points="338.8,-0.1 334.0,62.6 264.0,59.8" fill="#1E1E22" opacity="0.69"/><polygon points="328.1,4.7 405.8,5.8 328.9,56.4" fill="#6B6B70" opacity="0.9"/><polygon points="396.5,4.0 399.0,62.9 336.5,59.8" fill="#B4203B" opacity="0.81"/><polygon points="3.1,54.5 67.5,63.3 -1.7,119.0" fill="#B4203B" opacity="0.99"/><polygon points="70.9,60.0 68.4,118.4 -5.4,120.3" fill="#1E1E22" opacity="0.76"/><polygon points="70.2,59.0 131.5,60.9 68.4,116.4" fill="#6B6B70" opacity="0.57"/><polygon points="131.9,61.0 137.7,123.1 71.5,118.5" fill="#B4203B" opacity="0.64"/><polygon points="133.4,61.5 197.7,60.7 138.1,125.6" fill="#6B6B70" opacity="0.75"/><polygon points="203.4,60.6 194.6,117.5 133.8,115.4" fill="#6B6B70" opacity="0.91"/><polygon points="200.9,59.9 270.7,58.4 195.6,117.0" fill="#1E1E22" opacity="0.92"/><polygon points="271.2,55.5 265.6,117.9 204.9,121.6" fill="#B4203B" opacity="0.67"/><polygon points="261.7,58.9 334.4,62.3 264.4,115.8" fill="#B4203B" opacity="0.64"/><polygon points="331.6,65.6 336.2,125.9 267.7,120.3" fill="#6B6B70" opacity="0.97"/><polygon points="331.5,63.5 394.3,65.4 333.6,123.8" fill="#B4203B" opacity="1.0"/><polygon points="400.5,59.4 404.3,116.2 334.6,121.2" fill="#6B6B70" opacity="0.92"/><polygon points="-4.3,119.6 72.3,121.5 4.9,179.0" fill="#6B6B70" opacity="0.78"/><polygon points="66.2,125.1 69.2,175.3 4.8,177.4" fill="#6B6B70" opacity="0.92"/><polygon points="61.8,119.9 130.6,118.1 70.3,176.0" fill="#6B6B70" opacity="0.76"/><polygon points="138.2,120.3 132.8,179.5 67.8,176.3" fill="#6B6B70" opacity="0.76"/><polygon points="138.5,114.1 200.1,123.6 138.2,176.2" fill="#B4203B" opacity="0.94"/><polygon points="199.7,120.2 205.9,178.9 131.5,177.9" fill="#6B6B70" opacity="0.94"/><polygon points="203.5,118.8 272.2,121.5 205.9,177.7" fill="#1E1E22" opacity="0.85"/><polygon points="264.9,125.0 267.3,176.1 200.3,177.3" fill="#6B6B70" opacity="0.71"/><polygon points="271.4,124.8 330.4,116.3 272.2,175.7" fill="#1E1E22" opacity="0.59"/><polygon points="332.0,114.0 332.6,179.0 262.9,175.3" fill="#6B6B70" opacity="0.78"/><polygon points="336.2,115.4 404.0,122.0 329.2,177.5" fill="#1E1E22" opacity="0.83"/><polygon points="403.7,118.8 398.3,182.9 331.2,178.8" fill="#6B6B70" opacity="0.65"/><polygon points="1.3,175.7 60.8,183.8 5.4,242.8" fill="#6B6B70" opacity="0.86"/><polygon points="72.3,182.4 69.1,243.4 -5.7,234.7" fill="#B4203B" opacity="0.92"/><polygon points="66.3,174.7 134.3,185.5 64.8,236.4" fill="#6B6B70" opacity="0.65"/><polygon points="127.7,178.6 127.5,240.6 69.4,242.2" fill="#6B6B70" opacity="0.71"/><polygon points="132.7,176.6 200.3,175.1 129.7,245.7" fill="#6B6B70" opacity="0.71"/><polygon points="195.3,182.4 202.6,241.5 128.8,235.4" fill="#B4203B" opacity="0.85"/><polygon points="199.3,177.9 266.4,179.4 198.5,239.0" fill="#B4203B" opacity="0.63"/><polygon points="264.3,180.6 268.4,239.4 199.9,244.1" fill="#1E1E22" opacity="0.94"/><polygon points="269.3,175.7 329.8,179.5 266.7,236.9" fill="#1E1E22" opacity="0.6"/><polygon points="338.3,184.5 339.1,234.1 269.6,236.6" fill="#B4203B" opacity="0.74"/><polygon points="335.6,181.6 398.6,175.7 330.1,236.4" fill="#1E1E22" opacity="0.66"/><polygon points="399.3,175.5 395.7,237.5 339.1,239.8" fill="#6B6B70" opacity="0.74"/><polygon points="-3.9,243.8 63.0,237.8 2.1,303.7" fill="#1E1E22" opacity="0.57"/><polygon points="68.2,234.1 68.8,302.6 3.6,301.0" fill="#1E1E22" opacity="0.83"/><polygon points="65.5,245.8 137.3,240.2 66.0,296.3" fill="#1E1E22" opacity="0.69"/><polygon points="137.1,245.8 135.3,297.5 68.4,296.4" fill="#1E1E22" opacity="0.8"/><polygon points="130.5,240.9 197.4,239.6 131.0,294.0" fill="#6B6B70" opacity="0.69"/><polygon points="201.2,235.6 200.8,299.9 137.2,301.0" fill="#B4203B" opacity="0.57"/><polygon points="202.9,237.3 261.3,243.5 201.9,295.4" fill="#6B6B70" opacity="0.91"/><polygon points="261.9,236.5 271.5,301.9 201.0,298.3" fill="#1E1E22" opacity="0.65"/><polygon points="261.6,238.1 332.6,236.1 262.1,305.1" fill="#1E1E22" opacity="0.71"/><polygon points="328.5,238.9 332.3,297.4 261.7,303.5" fill="#6B6B70" opacity="0.63"/><polygon points="333.6,238.3 405.7,239.6 336.7,294.9" fill="#1E1E22" opacity="0.65"/><polygon points="401.9,245.6 401.8,302.0 333.8,301.5" fill="#6B6B70" opacity="0.77"/>
</svg>