<svg xmlns="http://www.w3.org/2000/svg" viewBox="0 0 400 300" width="400" height="300">
<rect width="400" height="300" fill="#7A1428"/>
<polygon points="-3.1,0.5 65.1,1.2 1.5,54.8" fill="#2B2B30" opacity="0.76"/><polygon points="60.8,4.0 63.8,56.8 5.9,59.6" fill="#2B2B30" opacity="0.94"/><polygon points="63.4,-4.2 138.4,-1.3 60.8,63.3" fill="#2B2B30" opacity="0.87"/><polygon points="129.2,5.5 127.8,63.4 70.5,57.2" fill="#7A1428" opacity="0.87"/><polygon points="138.4,-1.3 203.6,-0.7 138.6,64.5" fill="#7A1428" opacity="0.74"/><polygon points="195.2,-4.4 196.6,65.6 132.6,61.5" fill="#7A1428" opacity="0.81"/><polygon points="200.4,-1.1 263.5,-2.0 205.0,54.3" fill="#2B2B30" opacity="0.81"/><polygon points="264.0,1.3 269.0,62.4 197.9,60.5" fill="#2B2B30" opacity="0.84"/><polygon points="268.3,5.9 330.5,-4.5 266.5,61.7" fill="#7A1428" opacity="0.94"/><polygon points="333.1,-1.9 328.1,64.8 260.9,59.1" fill="#B4203B" opacity="0.82"/><polygon points="336.5,-1.5 401.0,0.6 338.4,57.3" fill="#7A1428" opacity="0.68"/><polygon points="396.8,-5.6 394.1,55.3 333.8,65.4" fill="#7A1428" opacity="0.62"/><polygon points="-5.5,64.4 64.4,65.5 4.8,118.5" fill="#2B2B30" opacity="0.67"/><polygon points="66.2,60.2 68.4,121.1 0.7,121.4" fill="#2B2B30" opacity="0.87"/><polygon points="63.5,57.6 139.1,60.3 67.2,114.1" fill="#2B2B30" opacity="0.7"/><polygon points="132.3,61.0 127.6,121.4 68.3,114.7" fill="#7A1428" opacity="0.86"/><polygon points="131.6,62.5 202.9,54.3 128.1,122.1" fill="#7A1428" opacity="0.89"/><polygon points="205.6,57.0 199.5,121.1 131.2,118.4" fill="#2B2B30" opacity="0.67"/><polygon points="203.4,55.3 270.4,65.7 202.2,115.6" fill="#B4203B" opacity="0.6"/><polygon points="266.7,61.8 263.9,117.9 202.1,121.8" fill="#7A1428" opacity="0.98"/><polygon points="268.8,56.7 337.1,65.5 261.6,122.9" fill="#7A1428" opacity="0.91"/><polygon points="329.9,60.8 330.6,123.4 261.1,125.5" fill="#2B2B30" opacity="0.63"/><polygon points="330.7,63.7 401.7,63.7 331.5,115.6" fill="#7A1428" opacity="0.57"/><polygon points="397.5,63.5 397.3,118.2 332.3,119.0" fill="#7A1428" opacity="0.62"/><polygon points="-5.9,125.3 71.2,125.8 -0.8,185.4" fill="#7A1428" opacity="0.79"/><polygon points="71.8,116.7 69.6,184.0 2.0,180.2" fill="#B4203B" opacity="0.94"/><polygon points="71.0,125.7 128.8,116.9 61.1,183.6" fill="#B4203B" opacity="0.63"/><polygon points="133.5,116.4 137.9,179.2 61.3,179.8" fill="#7A1428" opacity="0.66"/><polygon points="127.6,120.4 194.6,125.0 128.7,175.5" fill="#B4203B" opacity="0.63"/><polygon points="205.7,120.5 203.7,174.7 130.0,175.5" fill="#7A1428" opacity="0.96"/><polygon points="203.7,123.9 260.8,121.5 204.4,174.6" fill="#B4203B" opacity="0.94"/><polygon points="263.9,117.2 267.0,179.1 199.7,183.3" fill="#B4203B" opacity="0.57"/><polygon points="261.3,119.8 327.7,122.6 266.9,179.9" fill="#7A1428" opacity="0.74"/><polygon points="329.2,114.9 332.0,178.7 264.3,177.2" fill="#B4203B" opacity="0.8"/><polygon points="335.9,118.6 395.0,116.1 331.8,181.3" fill="#7A1428" opacity="0.89"/><polygon points="403.4,118.6 403.6,181.5 332.5,178.5" fill="#7A1428" opacity="0.74"/><polygon points="2.3,179.5 63.6,180.4 2.3,234.9" fill="#7A1428" opacity="0.6"/><polygon points="65.8,179.1 71.2,245.2 -1.5,244.8" fill="#2B2B30" opacity="0.61"/><polygon points="70.4,181.9 138.0,183.5 68.7,242.8" fill="#B4203B" opacity="0.79"/><polygon points="134.1,175.2 134.4,234.1 62.4,243.3" fill="#2B2B30" opacity="0.59"/><polygon points="137.9,176.1 194.3,184.1 128.8,244.1" fill="#2B2B30" opacity="0.78"/><polygon points="202.1,184.0 205.4,240.9 136.9,234.4" fill="#2B2B30" opacity="0.66"/><polygon points="200.7,175.2 267.3,180.6 204.4,236.2" fill="#7A1428" opacity="0.72"/><polygon points="261.6,186.0 268.4,239.4 202.4,245.3" fill="#7A1428" opacity="0.97"/><polygon points="267.3,185.6 331.8,176.8 271.8,244.1" fill="#B4203B" opacity="0.84"/><polygon points="338.9,179.0 334.2,241.0 271.8,242.2" fill="#B4203B" opacity="0.62"/><polygon points="333.3,179.8 402.4,185.4 334.4,244.3" fill="#2B2B30" opacity="0.98"/><polygon points="395.6,183.0 395.8,240.2 338.6,244.2" fill="#7A1428" opacity="0.85"/><polygon points="4.3,241.1 67.7,245.8 4.7,297.7" fill="#B4203B" opacity="0.74"/><polygon points="63.9,243.6 63.1,300.8 -3.1,299.8" fill="#2B2B30" opacity="0.77"/><polygon points="67.9,239.6 137.3,243.9 67.4,299.8" fill="#B4203B" opacity="0.95"/><polygon points="136.0,244.3 132.1,302.8 72.2,299.6" fill="#2B2B30" opacity="0.87"/><polygon points="135.4,245.5 204.2,236.9 129.6,297.1" fill="#7A1428" opacity="0.63"/><polygon points="196.2,242.5 204.3,304.8 130.4,304.4" fill="#B4203B" opacity="0.88"/><polygon points="195.0,235.1 270.7,237.5 198.3,301.0" fill="#2B2B30" opacity="0.88"/><polygon points="268.8,234.1 264.7,299.2 199.8,296.5" fill="#7A1428" opacity="0.73"/><polygon points="267.2,235.4 330.6,242.0 262.0,304.6" fill="#7A1428" opacity="0.85"/><polygon points="338.2,235.2 338.6,298.5 269.9,303.1" fill="#2B2B30" opacity="0.84"/><polygon points="337.0,237.2 403.1,245.5 335.4,300.4" fill="#B4203B" opacity="0.84"/><polygon points="395.4,239.9 398.2,302.6 335.5,300.8" fill="#2B2B30" opacity="0.83"/>
</svg>